<svg id="visual" viewBox="0 0 960 540" width="960" height="540" xmlns="http://www.w3.org/2000/svg" xmlns:xlink="http://www.w3.org/1999/xlink" version="1.1"><rect x="0" y="0" width="960" height="540" fill="#12151E"></rect><path d="M0 201L22.8 195.8C45.7 190.7 91.3 180.3 137 176.2C182.7 172 228.3 174 274 176.2C319.7 178.3 365.3 180.7 411.2 184.2C457 187.7 503 192.3 548.8 182.7C594.7 173 640.3 149 686 141.7C731.7 134.3 777.3 143.7 823 156.7C868.7 169.7 914.3 186.3 937.2 194.7L960 203L960 541L937.2 541C914.3 541 868.7 541 823 541C777.3 541 731.7 541 686 541C640.3 541 594.7 541 548.8 541C503 541 457 541 411.2 541C365.3 541 319.7 541 274 541C228.3 541 182.7 541 137 541C91.3 541 45.7 541 22.8 541L0 541Z" fill="#12151e"></path><path d="M0 245L22.8 242C45.7 239 91.3 233 137 231.8C182.7 230.7 228.3 234.3 274 237.3C319.7 240.3 365.3 242.7 411.2 235.8C457 229 503 213 548.8 209.3C594.7 205.7 640.3 214.3 686 211C731.7 207.7 777.3 192.3 823 193C868.7 193.7 914.3 210.3 937.2 218.7L960 227L960 541L937.2 541C914.3 541 868.7 541 823 541C777.3 541 731.7 541 686 541C640.3 541 594.7 541 548.8 541C503 541 457 541 411.2 541C365.3 541 319.7 541 274 541C228.3 541 182.7 541 137 541C91.3 541 45.7 541 22.8 541L0 541Z" fill="#1c2238"></path><path d="M0 240L22.8 247.3C45.7 254.7 91.3 269.3 137 269.2C182.7 269 228.3 254 274 253.7C319.7 253.3 365.3 267.7 411.2 264.7C457 261.7 503 241.3 548.8 231.2C594.7 221 640.3 221 686 222.8C731.7 224.7 777.3 228.3 823 233.2C868.7 238 914.3 244 937.2 247L960 250L960 541L937.2 541C914.3 541 868.7 541 823 541C777.3 541 731.7 541 686 541C640.3 541 594.7 541 548.8 541C503 541 457 541 411.2 541C365.3 541 319.7 541 274 541C228.3 541 182.7 541 137 541C91.3 541 45.7 541 22.8 541L0 541Z" fill="#283053"></path><path d="M0 277L22.8 279.7C45.7 282.3 91.3 287.7 137 293.2C182.7 298.7 228.3 304.3 274 307.2C319.7 310 365.3 310 411.2 304.8C457 299.7 503 289.3 548.8 287C594.7 284.7 640.3 290.3 686 295.7C731.7 301 777.3 306 823 308.2C868.7 310.3 914.3 309.7 937.2 309.3L960 309L960 541L937.2 541C914.3 541 868.7 541 823 541C777.3 541 731.7 541 686 541C640.3 541 594.7 541 548.8 541C503 541 457 541 411.2 541C365.3 541 319.7 541 274 541C228.3 541 182.7 541 137 541C91.3 541 45.7 541 22.8 541L0 541Z" fill="#373d6f"></path><path d="M0 323L22.8 329.3C45.7 335.7 91.3 348.3 137 347.8C182.7 347.3 228.3 333.7 274 333C319.7 332.3 365.3 344.7 411.2 348.3C457 352 503 347 548.8 345.8C594.7 344.7 640.3 347.3 686 342.5C731.7 337.7 777.3 325.3 823 323.2C868.7 321 914.3 329 937.2 333L960 337L960 541L937.2 541C914.3 541 868.7 541 823 541C777.3 541 731.7 541 686 541C640.3 541 594.7 541 548.8 541C503 541 457 541 411.2 541C365.3 541 319.7 541 274 541C228.3 541 182.7 541 137 541C91.3 541 45.7 541 22.8 541L0 541Z" fill="#4a4a8b"></path><path d="M0 381L22.8 384.8C45.7 388.7 91.3 396.3 137 395.2C182.7 394 228.3 384 274 383C319.7 382 365.3 390 411.2 391C457 392 503 386 548.8 386.7C594.7 387.3 640.3 394.7 686 392.2C731.7 389.7 777.3 377.3 823 376.8C868.7 376.3 914.3 387.7 937.2 393.3L960 399L960 541L937.2 541C914.3 541 868.7 541 823 541C777.3 541 731.7 541 686 541C640.3 541 594.7 541 548.8 541C503 541 457 541 411.2 541C365.3 541 319.7 541 274 541C228.3 541 182.7 541 137 541C91.3 541 45.7 541 22.8 541L0 541Z" fill="#6257a7"></path><path d="M0 447L22.8 445.3C45.7 443.7 91.3 440.3 137 440.7C182.7 441 228.3 445 274 446.2C319.7 447.3 365.3 445.7 411.2 442.8C457 440 503 436 548.8 431.7C594.7 427.3 640.3 422.7 686 422.5C731.7 422.3 777.3 426.7 823 431.3C868.7 436 914.3 441 937.2 443.5L960 446L960 541L937.2 541C914.3 541 868.7 541 823 541C777.3 541 731.7 541 686 541C640.3 541 594.7 541 548.8 541C503 541 457 541 411.2 541C365.3 541 319.7 541 274 541C228.3 541 182.7 541 137 541C91.3 541 45.7 541 22.8 541L0 541Z" fill="#7d62c3"></path><path d="M0 473L22.8 473.5C45.7 474 91.3 475 137 473.7C182.7 472.3 228.3 468.7 274 471.2C319.7 473.7 365.3 482.3 411.2 483C457 483.7 503 476.3 548.8 474.2C594.7 472 640.3 475 686 479.7C731.7 484.3 777.3 490.7 823 488.3C868.7 486 914.3 475 937.2 469.5L960 464L960 541L937.2 541C914.3 541 868.7 541 823 541C777.3 541 731.7 541 686 541C640.3 541 594.7 541 548.8 541C503 541 457 541 411.2 541C365.3 541 319.7 541 274 541C228.3 541 182.7 541 137 541C91.3 541 45.7 541 22.8 541L0 541Z" fill="#9b6dde"></path></svg>